# xmcd CD database file generated by Grip 3.2.0
# 
# Track frame offsets:
#       150
#       17929
#       32696
#       52701
#       71606
#       88346
#       101553
#       122181
#       136768
#       154376
# 
# Disc length: 2261 seconds
# 
# Revision: 1
# Processed by: cddbd v1.5.2PL0 Copyright (c) Steve Scherf et al.
# Submitted via: Grip 3.2.0
# 
DISCID=8308d30a
DTITLE=Oak Ridge Boys - Perfect Love
DYEAR=1900
DGENRE=Country
TTITLE0=Ain't No Short Way Home
TTITLE1=The Perfect Love
TTITLE2=Where The Sun Always Shines
TTITLE3=I'd Still Be Waiting
TTITLE4=Old Hearts
TTITLE5=If All I Had Left
TTITLE6=New Orleans
TTITLE7=What'll I Do
TTITLE8=Lady My Love
TTITLE9=Deep in Louisianna
EXTD=
EXTT0=
EXTT1=
EXTT2=
EXTT3=
EXTT4=
EXTT5=
EXTT6=
EXTT7=
EXTT8=
EXTT9=
PLAYORDER=
